<?xml version="1.0" encoding="UTF-8"?>
<svg id="Layer_2" data-name="Layer 2" xmlns="http://www.w3.org/2000/svg" viewBox="0 0 184.21 184.41">
  <defs>
    <style>
      .cls-1 {
        fill: #d32027;
      }

      .cls-1, .cls-2 {
        stroke-width: 0px;
      }

      .cls-2 {
        fill: none;
      }
    </style>
  </defs>
  <g id="Layer_1-2" data-name="Layer 1">
    <g>
      <rect class="cls-2" width="184.21" height="184.41"/>
      <path class="cls-1" d="m99.57,74.19c7.36-3.99,13.98-5.51,18.15-4.18.6.19.98.61,1.09,1.21.33,1.74-1.54,4.72-4.45,7.1l-15.77,12.89c-1.61,1.32-2.97,2.89-3.72,4.32l-10.6,20.12-.06.02c-5.62,1.75-10.07,1.51-12.52-.69-1.85-1.66-2.47-4.36-1.79-7.8.11-.56.25-1.14.43-1.73,3.07-10.29,15.72-23.92,29.26-31.26Zm-4.99,21.2c.77-1.47,2.16-3.08,3.8-4.42l.1.12-.1-.12,15.77-12.89c2.78-2.27,4.65-5.2,4.34-6.8-.09-.49-.39-.82-.88-.97-4.09-1.3-10.61.21-17.9,4.16-14.24,7.71-27.49,22.42-29.53,32.77-.66,3.33-.07,5.93,1.7,7.51,2.36,2.12,6.67,2.34,12.16.64l10.54-20Z"/>
      <path class="cls-1" d="m97.69,73.69c7.43-4.48,14.35-6.44,18.97-5.37.7.16,1.16.59,1.33,1.25.46,1.77-1.18,4.78-3.98,7.32l-15.41,13.97c-1.58,1.43-2.85,3.1-3.49,4.58l-9.01,20.91-.06.02c-5.98,2.18-10.85,2.16-13.71-.04-2.04-1.57-2.95-4.19-2.64-7.57.11-1.2.37-2.46.76-3.77,3.08-10.31,14.41-23.57,27.23-31.3Zm-2.86,21.63c.66-1.52,1.96-3.23,3.56-4.69l15.41-13.97c2.68-2.43,4.31-5.38,3.89-7.01-.14-.55-.51-.89-1.1-1.03-4.55-1.05-11.38.89-18.74,5.33-14.38,8.66-26.87,24.29-27.84,34.83-.3,3.27.57,5.8,2.52,7.3,2.76,2.13,7.5,2.14,13.35.02l8.96-20.78Z"/>
      <path class="cls-1" d="m95.61,73.31c7.45-4.98,14.64-7.39,19.73-6.61.81.12,1.37.57,1.61,1.29.58,1.77-.84,4.85-3.46,7.5l-14.9,15.03c-1.52,1.54-2.69,3.29-3.2,4.83l-7.21,21.6-.06.03c-6.29,2.63-11.58,2.88-14.89.72-2.24-1.47-3.46-4-3.52-7.32-.03-1.9.3-3.99.96-6.19,3.05-10.23,13.04-22.9,24.96-30.86Zm-.52,21.93c.53-1.58,1.72-3.38,3.27-4.95l.11.11-.11-.11,14.9-15.03c2.5-2.52,3.93-5.54,3.38-7.18-.2-.61-.66-.97-1.36-1.08-5.01-.77-12.12,1.62-19.51,6.56-14.41,9.63-25.98,26.13-25.78,36.79.06,3.22,1.23,5.66,3.38,7.07,3.21,2.1,8.38,1.84,14.54-.72l7.17-21.46Z"/>
      <path class="cls-1" d="m93.34,73.06c7.41-5.48,14.84-8.36,20.39-7.91.94.08,1.6.53,1.92,1.32.71,1.77-.48,4.9-2.89,7.63l-14.23,16.07c-1.45,1.64-2.5,3.48-2.87,5.05l-5.2,22.18-.07.03c-6.54,3.09-12.24,3.65-16.05,1.59-2.48-1.34-4.03-3.78-4.47-7.04-.37-2.67,0-5.75.98-9.03,2.98-9.99,11.63-21.87,22.49-29.9Zm2.02,22.09c.38-1.62,1.45-3.51,2.93-5.19l14.23-16.07c2.34-2.64,3.51-5.64,2.84-7.3-.27-.68-.83-1.06-1.66-1.13-5.48-.45-12.83,2.41-20.18,7.85-14.34,10.6-24.81,27.93-23.34,38.63.43,3.16,1.93,5.52,4.32,6.81,3.71,2.01,9.28,1.45,15.7-1.57l5.17-22.03Z"/>
      <path class="cls-1" d="m90.87,72.96c7.31-5.98,14.95-9.36,20.95-9.25,1.08.02,1.87.49,2.28,1.35.85,1.78-.07,4.88-2.29,7.71l-13.38,17.06c-1.37,1.74-2.27,3.66-2.48,5.26l-2.97,22.64-.07.04c-6.72,3.56-12.81,4.47-17.14,2.58-2.75-1.2-4.66-3.53-5.51-6.74-.92-3.48-.59-7.73.78-12.29,2.85-9.56,10.2-20.47,19.84-28.35Zm4.77,22.09c.22-1.65,1.14-3.63,2.54-5.41l13.38-17.06c2.15-2.74,3.05-5.7,2.25-7.38-.36-.75-1.05-1.16-2-1.17-5.94-.1-13.5,3.25-20.75,9.18-14.14,11.58-23.34,29.67-20.51,40.32.83,3.11,2.67,5.37,5.34,6.53,4.23,1.85,10.19.95,16.8-2.53l2.95-22.48Z"/>
      <path class="cls-1" d="m88.2,73.01c7.14-6.48,14.94-10.36,21.4-10.64,1.23-.05,2.16.42,2.68,1.37.99,1.79.35,4.83-1.65,7.74l-12.36,18.01c-1.26,1.84-2,3.82-2.04,5.44l-.52,22.95-.07.04c-6.81,4.02-13.24,5.32-18.12,3.68-3.07-1.04-5.38-3.25-6.66-6.4-1.75-4.29-1.53-9.93.27-15.97,2.66-8.92,8.78-18.69,17.07-26.22Zm7.72,21.91c.04-1.68.8-3.72,2.09-5.61l12.36-18.01c1.9-2.77,2.56-5.75,1.63-7.41-.46-.84-1.29-1.25-2.4-1.21-6.39.28-14.12,4.13-21.21,10.56-13.82,12.54-21.56,31.31-17.26,41.84,1.25,3.06,3.49,5.21,6.48,6.22,4.77,1.61,11.08.33,17.79-3.61l.52-22.78Z"/>
      <path class="cls-1" d="m85.35,73.23c6.9-6.97,14.82-11.37,21.72-12.07,1.37-.14,2.49.35,3.14,1.37,1.13,1.77.75,4.8-.98,7.72l-11.15,18.9c-1.13,1.92-1.7,3.96-1.55,5.59l2.15,23.12-.08.05c-6.81,4.45-13.53,6.18-18.94,4.87-3.45-.83-6.2-2.91-7.96-6.01-2.88-5.08-2.91-12.31-.62-19.97,2.41-8.06,7.38-16.6,14.27-23.56Zm10.87,21.54c-.16-1.69.42-3.8,1.59-5.78l.13.08-.13-.08,11.15-18.9c1.67-2.83,2.05-5.73.99-7.4-.59-.93-1.58-1.35-2.84-1.22-6.83.69-14.68,5.05-21.53,11.98-13.35,13.49-19.45,32.85-13.6,43.16,1.72,3.02,4.4,5.05,7.76,5.86,5.3,1.28,11.91-.41,18.62-4.78l-2.13-22.93Z"/>
      <path class="cls-1" d="m82.31,73.64c6.59-7.45,14.57-12.38,21.89-13.52,1.54-.24,2.84.24,3.65,1.34,1.29,1.76,1.18,4.69-.28,7.65l-9.74,19.71c-.99,2-1.36,4.09-1,5.71l5.03,23.11-.08.06c-11.4,8.26-23.05,8.49-28.99.58-4.33-5.77-4.79-14.79-1.99-24.17,2.1-7.03,6.03-14.26,11.52-20.48Zm14.21,20.97c-.37-1.69,0-3.85,1.03-5.92l.14.07-.14-.07,9.74-19.71c1.39-2.82,1.51-5.69.31-7.33-.75-1.02-1.91-1.44-3.35-1.22-7.25,1.13-15.16,6.02-21.71,13.42-6.14,6.94-10.51,15.4-12.31,23.81-1.8,8.39-.8,15.65,2.8,20.45,5.81,7.74,17.25,7.5,28.48-.59l-4.99-22.91Z"/>
      <path class="cls-1" d="m79.09,74.25c6.2-7.92,14.18-13.38,21.91-15,1.72-.36,3.21.1,4.21,1.29,1.44,1.71,1.6,4.6.43,7.53l-8.13,20.44-.14-.06.14.06c-.83,2.08-.97,4.19-.4,5.8l8.13,22.92-.09.07c-11.26,9.02-23.73,10.01-31.03,2.45-6.11-6.33-7.26-17.27-3.94-28.4,1.75-5.87,4.75-11.79,8.91-17.11Zm17.72,20.18c-.6-1.68-.45-3.88.41-6.02l8.13-20.44c1.13-2.83.98-5.6-.38-7.22-.92-1.1-2.31-1.52-3.91-1.19-7.66,1.6-15.57,7.03-21.73,14.88-5.77,7.37-9.47,16.15-10.41,24.72-.94,8.55.98,15.79,5.42,20.38,7.16,7.42,19.42,6.45,30.52-2.4l-8.05-22.71Z"/>
      <path class="cls-1" d="m75.71,75.06c5.72-8.35,13.65-14.36,21.75-16.48,1.89-.49,3.61-.07,4.83,1.2,1.59,1.65,2.04,4.46,1.18,7.36v.02s-6.33,21.07-6.33,21.07l-.15-.04.15.04c-.63,2.15-.55,4.27.25,5.85l11.43,22.52-.09.08c-11.02,9.79-24.29,11.58-33,4.45-5.38-4.4-8.34-11.64-8.33-20.39,0-4.03.63-8.14,1.83-12.16,1.41-4.71,3.59-9.3,6.48-13.52Zm21.41,19.16c-.84-1.65-.94-3.86-.28-6.07v-.02s6.33-21.07,6.33-21.07v-.02c.84-2.78.41-5.49-1.1-7.05-1.14-1.18-2.75-1.58-4.53-1.11-8.03,2.1-15.9,8.06-21.57,16.36-5.32,7.78-8.26,16.84-8.26,25.51,0,8.66,2.92,15.81,8.22,20.15,8.57,7.01,21.62,5.25,32.51-4.36l-11.32-22.31Z"/>
      <path class="cls-1" d="m72.17,76.1c5.16-8.77,12.96-15.31,21.41-17.96,2.04-.64,4.04-.25,5.5,1.06,1.78,1.6,2.5,4.28,1.93,7.17l-4.31,21.59c-.44,2.19-.09,4.33.96,5.87l14.93,21.92-.09.09c-10.68,10.54-24.7,13.19-34.88,6.59-6.29-4.07-10.32-11.16-11.34-19.96-.63-5.36-.09-10.94,1.52-16.34,1.03-3.45,2.5-6.82,4.38-10.03Zm25.24,17.9c-1.1-1.61-1.46-3.83-1.01-6.1l4.31-21.59c.55-2.78-.13-5.35-1.83-6.88-1.39-1.25-3.24-1.6-5.2-.99-8.38,2.63-16.12,9.12-21.24,17.82-4.8,8.16-6.88,17.45-5.86,26.17,1.02,8.7,5,15.71,11.21,19.73,10.03,6.5,23.85,3.9,34.41-6.46l-14.78-21.7Z"/>
      <path class="cls-1" d="m68.5,77.37c4.5-9.15,12.11-16.23,20.87-19.43,2.2-.8,4.46-.49,6.2.85,1.97,1.52,2.98,4.11,2.71,6.94l-2.08,21.98c-.21,2.23.42,4.35,1.73,5.84l18.61,21.08-.09.1c-10.22,11.28-24.95,14.84-36.66,8.86-7.23-3.69-12.38-10.55-14.52-19.33-1.6-6.58-1.36-13.59.64-20.3.67-2.24,1.53-4.44,2.59-6.58Zm29.2,16.38c-1.36-1.55-2.02-3.76-1.8-6.07l2.08-21.98c.26-2.72-.71-5.21-2.59-6.66-1.66-1.28-3.81-1.57-5.91-.81-8.68,3.18-16.23,10.2-20.7,19.28-4.19,8.51-5.33,17.98-3.21,26.68,2.12,8.69,7.22,15.48,14.36,19.13,11.55,5.9,26.07,2.4,36.19-8.69l-18.43-20.87Z"/>
      <path class="cls-1" d="m64.7,78.88c3.76-9.48,11.09-17.09,20.12-20.87,2.34-.98,4.87-.77,6.93.58,2.17,1.42,3.49,3.91,3.53,6.67l.36,22.23h0c.04,2.25.96,4.35,2.54,5.76l22.35,19.9.11.1-.09.11c-9.64,11.99-25.03,16.52-38.3,11.26-8.19-3.24-14.53-9.81-17.86-18.5-2.93-7.64-3.2-16.04-.82-24.01.32-1.09.7-2.17,1.12-3.23Zm33.28,14.6c-1.65-1.46-2.61-3.65-2.65-5.98l-.36-22.23c-.04-2.66-1.31-5.06-3.39-6.42-1.97-1.29-4.4-1.49-6.64-.55-8.95,3.75-16.22,11.3-19.95,20.7-3.49,8.82-3.6,18.41-.3,27.02,3.3,8.6,9.58,15.11,17.69,18.32,13.1,5.19,28.29.75,37.85-11.05l-22.24-19.8Z"/>
      <path class="cls-1" d="m79.95,58.37c2.46-1.17,5.25-1.08,7.65.22,2.43,1.32,4.04,3.65,4.41,6.39l3.01,22.33c.3,2.26,1.55,4.32,3.42,5.63l26.47,18.67-.09.13c-8.93,12.67-24.92,18.2-39.78,13.77-9.17-2.74-16.75-8.93-21.35-17.44-4.6-8.51-5.62-18.25-2.89-27.41,2.92-9.78,9.9-17.9,19.14-22.28Zm18.31,34.83c-1.94-1.37-3.23-3.49-3.54-5.84l-3.01-22.33c-.36-2.64-1.9-4.89-4.25-6.16-2.32-1.26-5-1.33-7.37-.21-9.17,4.34-16.08,12.39-18.98,22.09-2.71,9.09-1.69,18.74,2.86,27.18,4.56,8.44,12.07,14.58,21.16,17.29,14.68,4.38,30.47-1.05,39.34-13.53l-26.22-18.49Z"/>
    </g>
  </g>
</svg>