<?xml version="1.0" encoding="UTF-8"?>
<svg id="Layer_2" data-name="Layer 2" xmlns="http://www.w3.org/2000/svg" viewBox="0 0 184.21 184.41">
  <defs>
    <style>
      .cls-1 {
        fill: #d32027;
      }

      .cls-1, .cls-2 {
        stroke-width: 0px;
      }

      .cls-2 {
        fill: none;
      }
    </style>
  </defs>
  <g id="Layer_1-2" data-name="Layer 1">
    <g>
      <rect class="cls-2" width="184.21" height="184.41"/>
      <path class="cls-1" d="m75.71,75.06c5.72-8.35,13.65-14.36,21.75-16.48,1.89-.49,3.61-.07,4.83,1.2,1.59,1.65,2.04,4.46,1.18,7.36v.02s-6.33,21.07-6.33,21.07l-.15-.04.15.04c-.63,2.15-.55,4.27.25,5.85l11.43,22.52-.09.08c-11.02,9.79-24.29,11.58-33,4.45-5.38-4.4-8.34-11.64-8.33-20.39,0-4.03.63-8.14,1.83-12.16,1.41-4.71,3.59-9.3,6.48-13.52Zm21.41,19.16c-.84-1.65-.94-3.86-.28-6.07v-.02s6.33-21.07,6.33-21.07v-.02c.84-2.78.41-5.49-1.1-7.05-1.14-1.18-2.75-1.58-4.53-1.11-8.03,2.1-15.9,8.06-21.57,16.36-5.32,7.78-8.26,16.84-8.26,25.51,0,8.66,2.92,15.81,8.22,20.15,8.57,7.01,21.62,5.25,32.51-4.36l-11.32-22.31Z"/>
      <path class="cls-1" d="m72.17,76.1c5.16-8.77,12.96-15.31,21.41-17.96,2.04-.64,4.04-.25,5.5,1.06,1.78,1.6,2.5,4.28,1.93,7.17l-4.31,21.59c-.44,2.19-.09,4.33.96,5.87l14.93,21.92-.09.09c-10.68,10.54-24.7,13.19-34.88,6.59-6.29-4.07-10.32-11.16-11.34-19.96-.63-5.36-.09-10.94,1.52-16.34,1.03-3.45,2.5-6.82,4.38-10.03Zm25.24,17.9c-1.1-1.61-1.46-3.83-1.01-6.1l4.31-21.59c.55-2.78-.13-5.35-1.83-6.88-1.39-1.25-3.24-1.6-5.2-.99-8.38,2.63-16.12,9.12-21.24,17.82-4.8,8.16-6.88,17.45-5.86,26.17,1.02,8.7,5,15.71,11.21,19.73,10.03,6.5,23.85,3.9,34.41-6.46l-14.78-21.7Z"/>
      <path class="cls-1" d="m68.5,77.37c4.5-9.15,12.11-16.23,20.87-19.43,2.2-.8,4.46-.49,6.2.85,1.97,1.52,2.98,4.11,2.71,6.94l-2.08,21.98c-.21,2.23.42,4.35,1.73,5.84l18.61,21.08-.09.1c-10.22,11.28-24.95,14.84-36.66,8.86-7.23-3.69-12.38-10.55-14.52-19.33-1.6-6.58-1.36-13.59.64-20.3.67-2.24,1.53-4.44,2.59-6.58Zm29.2,16.38c-1.36-1.55-2.02-3.76-1.8-6.07l2.08-21.98c.26-2.72-.71-5.21-2.59-6.66-1.66-1.28-3.81-1.57-5.91-.81-8.68,3.18-16.23,10.2-20.7,19.28-4.19,8.51-5.33,17.98-3.21,26.68,2.12,8.69,7.22,15.48,14.36,19.13,11.55,5.9,26.07,2.4,36.19-8.69l-18.43-20.87Z"/>
      <path class="cls-1" d="m64.7,78.88c3.76-9.48,11.09-17.09,20.12-20.87,2.34-.98,4.87-.77,6.93.58,2.17,1.42,3.49,3.91,3.53,6.67l.36,22.23h0c.04,2.25.96,4.35,2.54,5.76l22.35,19.9.11.1-.09.11c-9.64,11.99-25.03,16.52-38.3,11.26-8.19-3.24-14.53-9.81-17.86-18.5-2.93-7.64-3.2-16.04-.82-24.01.32-1.09.7-2.17,1.12-3.23Zm33.28,14.6c-1.65-1.46-2.61-3.65-2.65-5.98l-.36-22.23c-.04-2.66-1.31-5.06-3.39-6.42-1.97-1.29-4.4-1.49-6.64-.55-8.95,3.75-16.22,11.3-19.95,20.7-3.49,8.82-3.6,18.41-.3,27.02,3.3,8.6,9.58,15.11,17.69,18.32,13.1,5.19,28.29.75,37.85-11.05l-22.24-19.8Z"/>
      <path class="cls-1" d="m79.95,58.37c2.46-1.17,5.25-1.08,7.65.22,2.43,1.32,4.04,3.65,4.41,6.39l3.01,22.33c.3,2.26,1.55,4.32,3.42,5.63l26.47,18.67-.09.13c-8.93,12.67-24.92,18.2-39.78,13.77-9.17-2.74-16.75-8.93-21.35-17.44-4.6-8.51-5.62-18.25-2.89-27.41,2.92-9.78,9.9-17.9,19.14-22.28Zm18.31,34.83c-1.94-1.37-3.23-3.49-3.54-5.84l-3.01-22.33c-.36-2.64-1.9-4.89-4.25-6.16-2.32-1.26-5-1.33-7.37-.21-9.17,4.34-16.08,12.39-18.98,22.09-2.71,9.09-1.69,18.74,2.86,27.18,4.56,8.44,12.07,14.58,21.16,17.29,14.68,4.38,30.47-1.05,39.34-13.53l-26.22-18.49Z"/>
    </g>
  </g>
</svg>