<?xml version="1.0" encoding="UTF-8"?>
<svg id="Layer_2" data-name="Layer 2" xmlns="http://www.w3.org/2000/svg" viewBox="0 0 184.21 184.41">
  <defs>
    <style>
      .cls-1 {
        fill: #d32027;
      }

      .cls-1, .cls-2 {
        stroke-width: 0px;
      }

      .cls-2 {
        fill: none;
      }
    </style>
  </defs>
  <g id="Layer_1-2" data-name="Layer 1">
    <g>
      <rect class="cls-2" width="184.21" height="184.41"/>
      <path class="cls-1" d="m79.95,58.37c2.46-1.17,5.25-1.08,7.65.22,2.43,1.32,4.04,3.65,4.41,6.39l3.01,22.33c.3,2.26,1.55,4.32,3.42,5.63l26.47,18.67-.09.13c-8.93,12.67-24.92,18.2-39.78,13.77-9.17-2.74-16.75-8.93-21.35-17.44-4.6-8.51-5.62-18.25-2.89-27.41,2.92-9.78,9.9-17.9,19.14-22.28Zm18.31,34.83c-1.94-1.37-3.23-3.49-3.54-5.84l-3.01-22.33c-.36-2.64-1.9-4.89-4.25-6.16-2.32-1.26-5-1.33-7.37-.21-9.17,4.34-16.08,12.39-18.98,22.09-2.71,9.09-1.69,18.74,2.86,27.18,4.56,8.44,12.07,14.58,21.16,17.29,14.68,4.38,30.47-1.05,39.34-13.53l-26.22-18.49Z"/>
    </g>
  </g>
</svg>